<svg xmlns="http://www.w3.org/2000/svg" viewBox="0 32 1080 832"><style>.st0{fill:#fff9ed}.st1{fill:#ffa600}.st2{fill:#ffe5be}</style><g><path class="st0" d="M472.53 154.67c-3.06-4.5-6.84-8.71-10.99-12.24-6.81-5.78-14.72-6.34-22.16-1.36-5.9 3.95-11.94 8.2-16.51 13.53-6.62 7.72-12.57 16.18-17.73 24.96-10.95 18.61-18.41 38.79-24.67 59.39-9.65 31.77-15.36 64.44-21.71 96.95-.17.87.11 1.83.19 2.8.78-.14 1.33-.07 1.53-.3 1.36-1.52 8.96 17.96-1.38 40.11-14.32 30.67-19.91 62.69-15.18 96.24 5.26 37.34 21.24 69.74 46.05 98.03 16.94 19.32 37.9 32.96 60.67 44.17 39.49 19.43 81.05 27.6 124.61 19.67 48.48-8.84 89.63-31.6 121.98-69.29 31.89-37.14 44.85-80.43 39.91-128.76-3.64-35.68-17.14-67.37-37.81-95.73-3.4-4.66-6.82-32.92-3.67-33.43-.1-2.08.04-4.13-.32-6.09-3.54-19.51-6.55-39.15-10.92-58.48-6.11-27-14.4-53.4-28.18-77.63-4.93-8.66-10.78-16.93-17.16-24.59-3.96-4.75-9.4-8.5-14.72-11.82-6.04-3.78-12.75-3.38-18.51.83-4.07 2.98-7.87 6.58-11.03 10.51-6.98 8.7-11.51 18.79-15.18 29.29-7.33 21-10.7 42.81-13.56 64.74-.63 4.81-1.44 9.59-2.25 14.91 3.33.5 1.28 15.19 1.28 15.19s-7.5-.4-11.26-.49c-17.93-.46-35.6 1.75-53.16 4.83-5.41.95-1.49-18.43-1.62-20.44-1.25-19.89-4.88-39.35-10.59-58.44-3.87-12.98-8.29-25.77-15.95-37.06z"/><path class="st1" d="M354.45 359c-.97-6.82 3.56-71.09 25.05-132.52s58.12-85.32 58.71-86.46c.59-1.15 29.08 0 29.08 0s24.84 37.64 25.81 40.55c.97 2.91 13.94 86.27 13.94 86.27l-45.86 10.57 9.11-9.24s4.64-36.6-3-61.86c-7.64-25.26-12.7-43.09-29.08-26.9-16.38 16.19-52.25 109.27-52.25 143.2-14.55 14.54-31.51 36.39-31.51 36.39z"/><path class="st1" d="M401.39 318.38s32.52-43.11 121.98-57.35c72.98 41.72-17.45 296.21-181.66 223.45-24.59-95.33 59.68-166.1 59.68-166.1z"/><path class="st2" d="M706.22 350.28c.97-6.82-3.56-71.09-25.05-132.52-21.49-61.43-58.12-85.32-58.71-86.46-.59-1.15-29.08 0-29.08 0s-24.84 37.64-25.81 40.55-13.94 86.27-13.94 86.27l45.86 10.57-9.11-9.24s-4.64-36.6 3-61.86c7.64-25.26 12.7-43.09 29.08-26.9s52.25 109.27 52.25 143.2c14.54 14.54 31.51 36.39 31.51 36.39z"/><path class="st2" d="M672.84 313.77s-34.49-43.29-129.37-57.58c-77.4 41.89 18.5 297.43 192.67 224.37 26.08-95.74-63.3-166.79-63.3-166.79z"/><linearGradient id="SVGID_1_" gradientUnits="userSpaceOnUse" x1="6172.846" y1="-2316.971" x2="6328.35" y2="-2316.971" gradientTransform="rotate(-45.001 6704.962 6087.107)"><stop offset="0" style="stop-color:#aeee80"/><stop offset="1" style="stop-color:#59ceb7"/></linearGradient><circle cx="441.18" cy="465.81" r="77.75" style="fill:url(#SVGID_1_)"/><path d="M441.18 389.35c10.32 0 20.34 2.02 29.76 6.01 9.1 3.85 17.28 9.36 24.3 16.39 7.02 7.02 12.54 15.2 16.39 24.3 3.98 9.42 6 19.43 6 29.76s-2.02 20.34-6 29.76a76.085 76.085 0 0 1-16.39 24.3c-7.02 7.02-15.2 12.54-24.3 16.39-9.42 3.98-19.43 6.01-29.76 6.01s-20.34-2.02-29.76-6.01a76.085 76.085 0 0 1-24.3-16.39c-7.02-7.02-12.54-15.2-16.39-24.3-3.98-9.42-6.01-19.43-6.01-29.76s2.02-20.34 6.01-29.76c3.85-9.1 9.36-17.28 16.39-24.3 7.02-7.02 15.2-12.54 24.3-16.39 9.43-3.99 19.44-6.01 29.76-6.01m0-7.25c-46.23 0-83.71 37.48-83.71 83.71s37.48 83.71 83.71 83.71 83.71-37.48 83.71-83.71-37.48-83.71-83.71-83.71z"/><circle cx="441.18" cy="465.81" r="61.87"/><ellipse class="st0" cx="469.31" cy="488.47" rx="39.7" ry="18.03"/><circle class="st0" cx="459.05" cy="433.71" r="13.23"/><path class="st0" d="M408.93 415.52c-1.47 22.73-12.61 40.8-26.62 43.18 14.02 2.38 25.15 20.44 26.62 43.18 1.47-22.73 12.61-40.8 26.62-43.18-14.02-2.39-25.16-20.45-26.62-43.18z"/><path d="M561.41 525.47c-.65.03-1.19.53-1.2 1.2 0 .48-.03.97-.09 1.45-.14.93-.39 1.84-.74 2.72-.37.84-.84 1.64-1.39 2.37-.57.72-1.22 1.36-1.93 1.93-.74.55-1.53 1.02-2.37 1.39-.87.35-1.78.6-2.71.74-.96.12-1.94.12-2.9 0-.93-.14-1.84-.39-2.71-.74-.84-.37-1.64-.84-2.37-1.39-.72-.57-1.36-1.22-1.93-1.93-.55-.74-1.02-1.53-1.39-2.37-.35-.87-.6-1.78-.74-2.72l-.03-.26v-9.55c.18-.1.35-.23.5-.38l8.56-8.56c1.57-1.57.46-4.25-1.76-4.25H529.1c-2.22 0-3.33 2.68-1.76 4.25l8.56 8.56c.19.19.4.34.63.46v7.9c-.04.12-.07.24-.07.37 0 .48-.03.97-.09 1.45-.14.93-.39 1.84-.74 2.72-.37.84-.84 1.64-1.39 2.37-.57.72-1.22 1.36-1.93 1.93-.74.55-1.53 1.02-2.37 1.39-.87.35-1.78.6-2.71.74-.96.12-1.94.12-2.9 0-.93-.14-1.84-.39-2.72-.74-.84-.37-1.64-.84-2.37-1.39-.72-.57-1.36-1.22-1.93-1.93-.55-.74-1.02-1.53-1.39-2.37-.35-.87-.6-1.78-.74-2.72-.06-.48-.09-.96-.09-1.45 0-.63-.55-1.22-1.2-1.2-.65.03-1.2.53-1.2 1.2.01 2.66.82 5.33 2.37 7.5a13.99 13.99 0 0 0 2.88 2.97c1.04.79 2.2 1.4 3.42 1.85 2.53.93 5.39 1.01 7.98.27 2.49-.71 4.8-2.18 6.45-4.18.44-.54.86-1.1 1.22-1.7.25-.41.46-.84.66-1.27.33.72.71 1.41 1.17 2.05a13.99 13.99 0 0 0 2.88 2.97c1.04.79 2.2 1.4 3.42 1.85 2.53.93 5.39 1.01 7.98.27 2.49-.71 4.8-2.18 6.45-4.18.44-.54.86-1.1 1.22-1.7.36-.6.65-1.23.92-1.87.51-1.24.79-2.56.9-3.89.03-.32.04-.63.04-.95-.04-.61-.59-1.21-1.24-1.18z" style="fill:#da676b"/><g><linearGradient id="SVGID_00000027600979141945882680000007417389431587022268_" gradientUnits="userSpaceOnUse" x1="6309.942" y1="-2179.875" x2="6465.446" y2="-2179.875" gradientTransform="rotate(-45.001 6704.962 6087.107)"><stop offset="0" style="stop-color:#aeee80"/><stop offset="1" style="stop-color:#59ceb7"/></linearGradient><circle style="fill:url(#SVGID_00000027600979141945882680000007417389431587022268_)" cx="635.07" cy="465.81" r="77.75"/><path d="M635.07 389.35c10.32 0 20.34 2.02 29.76 6.01 9.1 3.85 17.28 9.36 24.3 16.39 7.02 7.02 12.54 15.2 16.39 24.3 3.98 9.42 6.01 19.43 6.01 29.76s-2.02 20.34-6.01 29.76a76.085 76.085 0 0 1-16.39 24.3c-7.02 7.02-15.2 12.54-24.3 16.39-9.42 3.98-19.43 6.01-29.76 6.01s-20.34-2.02-29.76-6.01a76.085 76.085 0 0 1-24.3-16.39c-7.02-7.02-12.54-15.2-16.39-24.3-3.98-9.42-6.01-19.43-6.01-29.76s2.02-20.34 6.01-29.76c3.85-9.1 9.36-17.28 16.39-24.3 7.02-7.02 15.2-12.54 24.3-16.39 9.42-3.99 19.43-6.01 29.76-6.01m0-7.25c-46.23 0-83.71 37.48-83.71 83.71s37.48 83.71 83.71 83.71 83.71-37.48 83.71-83.71-37.48-83.71-83.71-83.71z"/><circle cx="635.07" cy="465.81" r="61.87"/><ellipse class="st0" cx="663.19" cy="488.47" rx="39.7" ry="18.03"/><circle class="st0" cx="652.93" cy="433.71" r="13.23"/><path class="st0" d="M602.81 415.52c-1.47 22.73-12.61 40.8-26.62 43.18 14.02 2.38 25.15 20.44 26.62 43.18 1.47-22.73 12.61-40.8 26.62-43.18-14.02-2.39-25.15-20.45-26.62-43.18z"/></g><path d="M515.95 255.37c11.21-.84 21.82-1.63 32.55-2.43.12-1.67.28-2.64.26-3.61-.83-33.65 5.05-66.05 18.13-97.1 3.81-9.05 8.88-17.34 15.86-24.35 14.5-14.57 33.64-16.92 51.23-6.22 9.53 5.8 16.75 13.98 23.15 22.94 12.38 17.32 20.62 36.68 27.61 56.63 8.5 24.28 14.29 49.23 17.84 74.68 1.78 12.79 3.15 25.64 4.56 38.48.37 3.35.82 6.9.07 10.09-1.05 4.51.71 7.48 3.29 10.73 20.18 25.41 33.48 53.98 38.56 86.12 6.27 39.68.57 77.74-17.05 113.78-29.99 61.36-79.26 97.45-146.14 109.9-36.39 6.78-72.46 4.85-108.09-4.92-65.56-17.98-121.26-75.53-139.35-133.45-14.12-45.19-12.38-89.72 5.04-133.67 1.28-3.22 1.88-6.34 1.71-9.82-.84-17.37 1.27-34.56 3.89-51.66 5.97-38.91 17.15-76.38 32.89-112.41 5.55-12.71 12.56-24.81 19.4-36.91 4.92-8.69 11.68-16.07 19-22.88 6.71-6.25 14.53-10.27 23.57-12.04 10.82-2.13 20.53.4 29.29 6.77 8.54 6.21 14.65 14.52 19.51 23.78 8.58 16.37 13.6 33.91 16.51 52.06 2.2 13.73 3.92 27.53 5.88 41.3.17 1.17.45 2.3.83 4.21zm-18 2.83c0-2.57.11-4.53-.02-6.48-1.21-19.32-4.74-38.23-10.29-56.77-3.77-12.61-8.06-25.04-15.51-36a60.365 60.365 0 0 0-10.68-11.89c-6.61-5.62-14.3-6.15-21.52-1.32-5.74 3.84-11.6 7.97-16.04 13.14-6.43 7.5-12.21 15.72-17.23 24.25-10.63 18.08-17.89 37.68-23.96 57.69-9.37 30.86-14.92 62.59-21.09 94.18-.17.85.11 1.78.18 2.72.76-.14 1.29-.07 1.49-.29 1.32-1.48 2.6-2.99 3.83-4.54 10.02-12.77 21.52-23.97 35.2-32.79 2.42-1.56 5.35-2.8 8.17-3.16 3.98-.51 6.24 2.92 4.67 6.68-.74 1.78-2.01 3.43-3.33 4.87-3.21 3.53-6.63 6.87-9.9 10.35-16.2 17.19-29.93 36.05-39.97 57.56-13.91 29.8-19.34 60.89-14.75 93.48 5.11 36.27 20.64 67.75 44.73 95.23 16.45 18.76 36.82 32.02 58.93 42.9 38.36 18.88 78.74 26.81 121.04 19.1 47.1-8.58 87.06-30.7 118.49-67.3 30.98-36.08 43.56-78.12 38.77-125.07-4.12-40.36-21.21-75.46-47.18-106.31-10.25-12.18-21.25-23.68-33.34-34.11-2.99-2.57-5.52-5.7-8.09-8.72-1.69-1.99-2.74-4.33-1.73-7.46 1.21.17 2.43.07 3.4.51 3.61 1.65 7.24 3.28 10.67 5.26 10.9 6.29 20.64 14.17 30.14 22.36 1.54 1.33 2.76 3.5 5.83 3-.09-2.02.04-4.01-.31-5.92-3.44-18.96-6.36-38.03-10.61-56.81-5.93-26.23-13.98-51.87-27.37-75.41-4.79-8.42-10.47-16.45-16.67-23.89-3.85-4.62-9.13-8.25-14.3-11.49-5.87-3.67-12.39-3.28-17.98.81a56.938 56.938 0 0 0-10.71 10.21c-6.78 8.45-11.18 18.25-14.74 28.45-7.12 20.4-10.4 41.58-13.17 62.89-.61 4.67-1.4 9.31-2.18 14.48 3.24.48 5.94.89 8.64 1.28 6.09.88 12.2 1.62 18.26 2.69 2.71.48 5.4 1.4 7.9 2.55 2.36 1.08 4.83 2.75 4.31 5.78-.52 3-3.32 3.74-5.95 4.02-2.17.24-4.38.27-6.55.14-12.1-.72-24.19-1.88-36.3-2.2-22.78-.59-45.14 3.27-67.37 7.66-7.95 1.57-15.67 4.34-23.49 6.61-2.36.69-4.63 1.32-6.94-1.46.95-1.46 1.68-3.41 3.06-4.6 11.76-10.05 26.4-13.29 41.56-16.86z"/><g><path d="M803.46 436.68c3.19-3.05 6.13-6.41 9.6-9.09 22.52-17.4 38.84-39.67 51.72-64.76 3.32-6.46 7.03-12.73 10.89-18.88 2.13-3.39 4.61-6.69 7.52-9.43 6.3-5.93 13.87-7.1 19.98-3.65 6.48 3.65 9.59 11.5 6.85 20.11-1.81 5.7-4.26 11.57-7.88 16.24-7.63 9.86-15.27 20.06-24.6 28.18-18.32 15.94-39.23 28.3-61.05 38.97-3.86 1.89-8.11 2.97-12.19 4.42-.28-.69-.56-1.4-.84-2.11zM820.38 373.38c3.25-8.49 6.19-17.12 9.81-25.46 8.7-20 15.59-40.46 19.47-62.03 1.91-10.63 5.86-20.9 8.96-31.31.57-1.92 1.4-3.78 2.32-5.56 4.26-8.22 10.47-11.91 17.19-10.31 6.68 1.59 11.96 7.97 10.6 16.77-2.07 13.4-4.47 27.17-9.62 39.59-10.89 26.24-29.17 48.07-46.31 70.42-2.78 3.62-6.94 6.19-10.46 9.25l-1.96-1.36z"/><g><path d="M283.38 375.91c-4.56-1.94-9.59-3.2-13.6-5.94-11.78-8.04-23.56-16.18-34.55-25.23-9.33-7.68-17.61-16.65-26.31-25.09-10.08-9.79-18.54-20.93-22.39-34.48-2.17-7.66-2.49-16.14-2.02-24.16.37-6.36 5.17-10.75 11.54-12.68 6.69-2.02 12.02.77 16.18 5.53 2.8 3.2 4.95 7.1 6.81 10.96 9.96 20.7 20.92 40.73 34.72 59.26 9.79 13.15 18.34 27.23 27.27 41.01 1.74 2.68 2.66 5.89 3.96 8.86-.55.65-1.08 1.3-1.61 1.96zM286.16 425.7c-7.16-1.04-14.38-1.82-21.48-3.2-8.46-1.64-16.85-3.66-25.21-5.75-18.15-4.53-33.03-14.61-46.03-27.7-1.78-1.79-3.04-4.19-4.24-6.46-2.89-5.45-3.01-10.85 1.46-15.56 4.85-5.11 10.18-3.53 15.31-.44 9.25 5.57 18.65 10.94 27.57 17 16.76 11.38 33.25 23.17 49.79 34.87 1.61 1.14 2.79 2.88 4.18 4.33-.44.98-.89 1.95-1.35 2.91z"/></g></g></g></svg>